<svg xmlns="http://www.w3.org/2000/svg" width="16.667" height="24"><path d="M15.851 7.505H.816A.786.786 0 000 8.257v14.99a.746.746 0 00.418.657.876.876 0 00.825-.016l7.087-4.019 7.094 4.018a.875.875 0 00.825.016.746.746 0 00.418-.657V8.257a.784.784 0 00-.816-.752zm0 15.741l-7.4-4.191a.252.252 0 00-.123-.035.24.24 0 00-.119.033L.816 23.247V8.257h15.035zM15.851 0H.816A.786.786 0 000 .752V5.3a.786.786 0 00.816.752h15.035a.786.786 0 00.816-.752V.752A.786.786 0 0015.851 0zm0 5.3H.816V.752h15.035z" fill="#5b6770"/></svg>