<svg xmlns="http://www.w3.org/2000/svg" width="24" height="24"><path d="M14.999 0h-6a.469.469 0 00-.469.469v6a.469.469 0 00.469.469h6a.469.469 0 00.469-.469v-6A.469.469 0 0014.999 0zm-.469 6H9.47V.937h5.06zM23.531 0h-6a.469.469 0 00-.469.469v6a.469.469 0 00.469.469h6A.47.47 0 0024 6.469v-6A.469.469 0 0023.531 0zm-.468 6h-5.06V.937h5.06zM6.466 8.531h-6A.469.469 0 000 9v6a.469.469 0 00.469.469h6A.469.469 0 006.938 15V9a.47.47 0 00-.472-.469zm-5.529 6V9.468H6v5.063zM14.999 8.531h-6A.469.469 0 008.53 9v6a.469.469 0 00.469.469h6a.469.469 0 00.469-.469V9a.469.469 0 00-.469-.469zm-.469 6H9.47V9.468h5.06zM23.531 8.531h-6a.469.469 0 00-.469.469v6a.469.469 0 00.469.469h6A.469.469 0 0024 15V9a.469.469 0 00-.469-.469zm-.468 6h-5.06V9.468h5.06zM6.466 17.062h-6A.468.468 0 000 17.53v6a.469.469 0 00.469.469h6a.469.469 0 00.469-.469v-6a.469.469 0 00-.472-.468zm-5.529 6v-5.063H6v5.063zM14.999 17.062h-6a.469.469 0 00-.469.469v6a.469.469 0 00.469.469h6a.469.469 0 00.469-.469v-6a.469.469 0 00-.469-.469zm-.469 6H9.47v-5.063h5.06zM21.024 17.863a.469.469 0 10-.332.137.472.472 0 00.332-.137z" fill="#5b6770"/><path d="M23.532 17.062h-.72a.469.469 0 000 .938h.246v5.063h-5.06V18h.628a.469.469 0 000-.938h-1.1a.469.469 0 00-.469.469v6a.469.469 0 00.469.469h6a.469.469 0 00.469-.469v-6a.467.467 0 00-.463-.469zM2.976 6.137a.468.468 0 10.663 0 .477.477 0 00-.331-.133.472.472 0 00-.332.133z" fill="#5b6770"/><path d="M.469 6.937h.715a.469.469 0 000-.938H.937V.937H6V6h-.631a.469.469 0 000 .938h1.1a.469.469 0 00.469-.469v-6A.47.47 0 006.466 0h-6A.469.469 0 000 .469v6a.468.468 0 00.469.468z" fill="#5b6770"/></svg>