<svg xmlns="http://www.w3.org/2000/svg" width="24" height="24"><path d="M23.952 9.093a.952.952 0 00-.821-.687l-7.337-.712-1.455-3.537a.345.345 0 00-.462-.192.374.374 0 00-.184.484l1.537 3.738a.351.351 0 00.29.221l7.546.733a.248.248 0 01.218.182.265.265 0 01-.073.281l-5.693 5.238a.378.378 0 00-.111.357l1.667 7.741a.261.261 0 01-.1.273.236.236 0 01-.278.013l-6.516-4.052a.337.337 0 00-.359 0l-6.516 4.051a.236.236 0 01-.278-.013.262.262 0 01-.1-.273l.86-4a.369.369 0 00-.266-.44.351.351 0 00-.42.278l-.86 4a1.012 1.012 0 00.371 1.03.909.909 0 001.05.051l6.337-3.941 6.336 3.94a.908.908 0 001.05-.051 1.011 1.011 0 00.371-1.03l-1.62-7.528 5.537-5.093a1.017 1.017 0 00.279-1.062z" fill="#5b6770"/><path d="M5.441 17.206a.369.369 0 00.266.44.331.331 0 00.078.009.356.356 0 00.343-.287l.467-2.168a.378.378 0 00-.111-.357L.791 9.6a.264.264 0 01-.074-.281.25.25 0 01.218-.182l7.546-.733a.354.354 0 00.29-.221l3-7.288a.249.249 0 01.465 0l.814 1.979a.345.345 0 00.462.192.375.375 0 00.184-.484L12.879.6a.94.94 0 00-1.757 0L8.208 7.693.87 8.405a.954.954 0 00-.821.687 1.018 1.018 0 00.278 1.062l5.537 5.093z" fill="#5b6770"/></svg>