<svg xmlns="http://www.w3.org/2000/svg" width="24" height="24"><path d="M23.451 20.8l-6.256-6.257a9.386 9.386 0 10-2.652 2.651l1.73 1.729L20.8 23.45a1.875 1.875 0 102.651-2.65zm-9.129-4.593a8.446 8.446 0 111.884-1.884 8.472 8.472 0 01-1.884 1.883zm.983.425a9.379 9.379 0 001.325-1.325l1.33 1.33a11.4 11.4 0 01-1.325 1.325zm7.483 6.157a.938.938 0 01-1.326 0L17.3 18.625a12.284 12.284 0 001.325-1.325l4.163 4.162a.938.938 0 010 1.325z" fill="#fff"/><path d="M9.375 1.875a7.5 7.5 0 107.5 7.5 7.509 7.509 0 00-7.5-7.5zm0 14.063a6.563 6.563 0 116.563-6.563 6.57 6.57 0 01-6.563 6.563z" fill="#fff"/></svg>